HIERARCHY
ROOT Hips
{
	OFFSET 0.000000 100.481300 0.000000
	CHANNELS 6 Xposition Yposition Zposition Xrotation Yrotation Zrotation
	JOINT Spine
	{
		OFFSET -0.279200 12.230698 -2.892100
		CHANNELS 3 Xrotation Yrotation Zrotation
		JOINT Spine1
		{
			OFFSET -0.325700 14.269203 -3.374200
			CHANNELS 3 Xrotation Yrotation Zrotation
			JOINT Spine2
			{
				OFFSET -0.372300 16.307602 -0.352600
				CHANNELS 3 Xrotation Yrotation Zrotation
				JOINT Neck
				{
					OFFSET -0.418800 17.814194 8.416900
					CHANNELS 3 Xrotation Yrotation Zrotation
					JOINT Head
					{
						OFFSET 0.000000 7.031097 3.806800
						CHANNELS 3 Xrotation Yrotation Zrotation
						JOINT HeadTop_End
						{
							OFFSET 0.000000 24.646606 12.978600
							CHANNELS 3 Xrotation Yrotation Zrotation
							End Site
							{
								OFFSET 0.000000 27.854965 0.000000
							}
						}
					}
				}
				JOINT LeftShoulder
				{
					OFFSET 16.952999 14.495407 -7.737500
					CHANNELS 3 Xrotation Yrotation Zrotation
					JOINT LeftArm
					{
						OFFSET 9.308998 -2.777710 0.208600
						CHANNELS 3 Xrotation Yrotation Zrotation
						JOINT LeftForeArm
						{
							OFFSET 29.972298 0.000000 0.000000
							CHANNELS 3 Xrotation Yrotation Zrotation
							JOINT LeftHand
							{
								OFFSET 26.026505 0.000000 0.000000
								CHANNELS 3 Xrotation Yrotation Zrotation
								JOINT LeftHandThumb1
								{
									OFFSET 12.240501 -7.147949 9.207150
									CHANNELS 3 Xrotation Yrotation Zrotation
									JOINT LeftHandThumb2
									{
										OFFSET 4.138618 -2.389435 2.389433
										CHANNELS 3 Xrotation Yrotation Zrotation
										JOINT LeftHandThumb3
										{
											OFFSET 2.726913 -1.574387 1.574386
											CHANNELS 3 Xrotation Yrotation Zrotation
											JOINT LeftHandThumb4
											{
												OFFSET 3.941010 -2.275345 2.275342
												CHANNELS 3 Xrotation Yrotation Zrotation
												End Site
												{
													OFFSET -0.005798 5.087799 0.009903
												}
											}
										}
									}
								}
								JOINT LeftHandIndex1
								{
									OFFSET 24.424698 -1.985611 5.953459
									CHANNELS 3 Xrotation Yrotation Zrotation
									JOINT LeftHandIndex2
									{
										OFFSET 6.426697 0.000000 0.000000
										CHANNELS 3 Xrotation Yrotation Zrotation
										JOINT LeftHandIndex3
										{
											OFFSET 5.337898 0.000000 0.000000
											CHANNELS 3 Xrotation Yrotation Zrotation
											JOINT LeftHandIndex4
											{
												OFFSET 4.409401 0.000000 0.000000
												CHANNELS 3 Xrotation Yrotation Zrotation
												End Site
												{
													OFFSET 0.000000 4.409363 0.014373
												}
											}
										}
									}
								}
								JOINT LeftHandMiddle1
								{
									OFFSET 23.810104 0.000000 0.000000
									CHANNELS 3 Xrotation Yrotation Zrotation
									JOINT LeftHandMiddle2
									{
										OFFSET 7.176498 0.000000 0.000000
										CHANNELS 3 Xrotation Yrotation Zrotation
										JOINT LeftHandMiddle3
										{
											OFFSET 6.774902 0.000000 0.000000
											CHANNELS 3 Xrotation Yrotation Zrotation
											JOINT LeftHandMiddle4
											{
												OFFSET 5.403328 0.000000 0.000000
												CHANNELS 3 Xrotation Yrotation Zrotation
												End Site
												{
													OFFSET -0.027702 5.403244 0.017414
												}
											}
										}
									}
								}
								JOINT LeftHandRing1
								{
									OFFSET 22.908401 -0.839279 -6.020567
									CHANNELS 3 Xrotation Yrotation Zrotation
									JOINT LeftHandRing2
									{
										OFFSET 6.337502 0.000000 0.000000
										CHANNELS 3 Xrotation Yrotation Zrotation
										JOINT LeftHandRing3
										{
											OFFSET 5.779297 0.000000 0.000000
											CHANNELS 3 Xrotation Yrotation Zrotation
											JOINT LeftHandRing4
											{
												OFFSET 4.965698 0.000000 0.000000
												CHANNELS 3 Xrotation Yrotation Zrotation
												End Site
												{
													OFFSET 0.000000 4.965668 0.016186
												}
											}
										}
									}
								}
								JOINT LeftHandPinky1
								{
									OFFSET 20.037003 -1.530319 -10.950146
									CHANNELS 3 Xrotation Yrotation Zrotation
									JOINT LeftHandPinky2
									{
										OFFSET 5.254700 0.000000 0.000000
										CHANNELS 3 Xrotation Yrotation Zrotation
										JOINT LeftHandPinky3
										{
											OFFSET 4.810204 0.000000 0.000000
											CHANNELS 3 Xrotation Yrotation Zrotation
											JOINT LeftHandPinky4
											{
												OFFSET 3.647202 0.000000 0.000000
												CHANNELS 3 Xrotation Yrotation Zrotation
												End Site
												{
													OFFSET 0.000000 3.647186 0.011889
												}
											}
										}
									}
								}
							}
						}
					}
				}
				JOINT RightShoulder
				{
					OFFSET -15.141001 14.495407 -7.737500
					CHANNELS 3 Xrotation Yrotation Zrotation
					JOINT RightArm
					{
						OFFSET -9.308998 -2.777710 0.208500
						CHANNELS 3 Xrotation Yrotation Zrotation
						JOINT RightForeArm
						{
							OFFSET -29.972300 0.000000 0.000000
							CHANNELS 3 Xrotation Yrotation Zrotation
							JOINT RightHand
							{
								OFFSET -26.026505 0.000000 0.000000
								CHANNELS 3 Xrotation Yrotation Zrotation
								JOINT RightHandThumb1
								{
									OFFSET -12.240601 -7.148026 9.207092
									CHANNELS 3 Xrotation Yrotation Zrotation
									JOINT RightHandThumb2
									{
										OFFSET -4.138618 -2.389435 2.389433
										CHANNELS 3 Xrotation Yrotation Zrotation
										JOINT RightHandThumb3
										{
											OFFSET -2.726974 -1.574417 1.574421
											CHANNELS 3 Xrotation Yrotation Zrotation
											JOINT RightHandThumb4
											{
												OFFSET -3.941010 -2.275345 2.275343
												CHANNELS 3 Xrotation Yrotation Zrotation
												End Site
												{
													OFFSET 0.005814 5.087799 0.009927
												}
											}
										}
									}
								}
								JOINT RightHandIndex1
								{
									OFFSET -24.424698 -1.985657 5.953444
									CHANNELS 3 Xrotation Yrotation Zrotation
									JOINT RightHandIndex2
									{
										OFFSET -6.426697 0.000000 0.000000
										CHANNELS 3 Xrotation Yrotation Zrotation
										JOINT RightHandIndex3
										{
											OFFSET -5.337898 0.000000 0.000000
											CHANNELS 3 Xrotation Yrotation Zrotation
											JOINT RightHandIndex4
											{
												OFFSET -4.409401 0.000000 0.000000
												CHANNELS 3 Xrotation Yrotation Zrotation
												End Site
												{
													OFFSET 0.000000 4.409363 0.014408
												}
											}
										}
									}
								}
								JOINT RightHandMiddle1
								{
									OFFSET -23.810097 0.000000 0.000000
									CHANNELS 3 Xrotation Yrotation Zrotation
									JOINT RightHandMiddle2
									{
										OFFSET -7.176498 0.000000 0.000000
										CHANNELS 3 Xrotation Yrotation Zrotation
										JOINT RightHandMiddle3
										{
											OFFSET -6.774902 0.000000 0.000000
											CHANNELS 3 Xrotation Yrotation Zrotation
											JOINT RightHandMiddle4
											{
												OFFSET -5.403328 0.000000 0.000000
												CHANNELS 3 Xrotation Yrotation Zrotation
												End Site
												{
													OFFSET 0.027702 5.403244 0.017457
												}
											}
										}
									}
								}
								JOINT RightHandRing1
								{
									OFFSET -22.908302 -0.839325 -6.020576
									CHANNELS 3 Xrotation Yrotation Zrotation
									JOINT RightHandRing2
									{
										OFFSET -6.337502 0.000000 0.000000
										CHANNELS 3 Xrotation Yrotation Zrotation
										JOINT RightHandRing3
										{
											OFFSET -5.779297 0.000000 0.000000
											CHANNELS 3 Xrotation Yrotation Zrotation
											JOINT RightHandRing4
											{
												OFFSET -4.965698 0.000000 0.000000
												CHANNELS 3 Xrotation Yrotation Zrotation
												End Site
												{
													OFFSET 0.000000 4.965668 0.016226
												}
											}
										}
									}
								}
								JOINT RightHandPinky1
								{
									OFFSET -20.037003 -1.530334 -10.950259
									CHANNELS 3 Xrotation Yrotation Zrotation
									JOINT RightHandPinky2
									{
										OFFSET -5.254700 0.000000 0.000000
										CHANNELS 3 Xrotation Yrotation Zrotation
										JOINT RightHandPinky3
										{
											OFFSET -4.810204 0.000000 0.000000
											CHANNELS 3 Xrotation Yrotation Zrotation
											JOINT RightHandPinky4
											{
												OFFSET -3.647202 0.000000 0.000000
												CHANNELS 3 Xrotation Yrotation Zrotation
												End Site
												{
													OFFSET 0.000000 3.647186 0.011917
												}
											}
										}
									}
								}
							}
						}
					}
				}
			}
		}
	}
	JOINT LeftUpLeg
	{
		OFFSET 15.427100 -6.655098 0.678600
		CHANNELS 3 Xrotation Yrotation Zrotation
		JOINT LeftLeg
		{
			OFFSET 4.081073 -39.591068 13.024000
			CHANNELS 3 Xrotation Yrotation Zrotation
			JOINT LeftFoot
			{
				OFFSET -4.081074 -37.707932 -15.979700
				CHANNELS 3 Xrotation Yrotation Zrotation
				JOINT LeftToeBase
				{
					OFFSET 5.346399 -15.068900 20.645000
					CHANNELS 3 Xrotation Yrotation Zrotation
					JOINT LeftToe_End
					{
						OFFSET 2.754700 0.931300 11.300900
						CHANNELS 3 Xrotation Yrotation Zrotation
						End Site
						{
							OFFSET 0.000000 11.669021 0.000000
						}
					}
				}
			}
		}
	}
	JOINT RightUpLeg
	{
		OFFSET -15.569500 -6.655098 0.678600
		CHANNELS 3 Xrotation Yrotation Zrotation
		JOINT RightLeg
		{
			OFFSET -4.081825 -39.591045 13.023800
			CHANNELS 3 Xrotation Yrotation Zrotation
			JOINT RightFoot
			{
				OFFSET 4.081824 -37.707954 -15.979600
				CHANNELS 3 Xrotation Yrotation Zrotation
				JOINT RightToeBase
				{
					OFFSET -5.346400 -15.068900 20.645000
					CHANNELS 3 Xrotation Yrotation Zrotation
					JOINT RightToe_End
					{
						OFFSET -2.754700 0.931300 11.300900
						CHANNELS 3 Xrotation Yrotation Zrotation
						End Site
						{
							OFFSET 0.000000 11.669021 0.000000
						}
					}
				}
			}
		}
	}
}
MOTION
Frames: 4
Frame Time: 0.033333
0.759226 87.545280 -0.797586 -2.671719 -34.029181 -3.797875 1.484520 1.625737 0.445710 2.959787 3.029344 0.828342 2.959787 3.029356 0.828343 19.253680 6.782715 0.764056 -1.129448 5.817609 -4.735129 -0.000000 -0.000001 -0.000000 0.320400 -21.263479 -3.367602 -43.454688 -23.392126 -37.517225 18.857850 -69.772370 16.526679 -60.081643 11.772364 68.725316 10.845217 17.966842 7.422538 4.132280 9.785892 -9.184714 0.000000 0.000003 0.000006 0.000001 -0.000000 -0.000001 22.252471 13.497789 -66.148203 0.240126 0.605821 -36.659971 -0.000010 0.000001 -0.000000 -0.000000 0.000001 0.000000 19.628314 6.058853 -80.708213 -0.508428 -2.099986 -26.640181 -0.000017 0.000001 -0.000000 0.000000 0.000000 -0.000000 16.869189 6.916427 -79.926539 -2.053510 -3.979349 -54.772670 0.000010 -0.000002 -0.000005 -0.000000 0.000000 -0.000000 13.075554 1.851458 -87.463987 -2.859166 -5.485281 -55.054292 0.000000 -0.000000 0.000000 -0.000000 -0.000000 0.000000 2.586376 27.064660 -7.724501 -79.226684 53.400106 76.921065 -11.845433 31.697617 6.280250 -37.162342 -4.646205 -16.548239 18.286477 18.130505 -0.885863 21.120740 -17.787457 -1.144215 -0.000007 0.000007 0.000003 0.000003 -0.000000 0.000001 -5.492013 -8.089708 -5.170095 0.539942 -2.374266 19.434079 -0.000001 0.000000 0.000002 -0.000000 -0.000000 -0.000000 4.216713 -5.591314 57.166143 -3.057646 3.510213 81.926528 -0.000001 0.000006 0.000005 0.000001 -0.000000 -0.000001 3.392845 -2.056436 54.598890 -5.129184 6.055194 78.954542 0.000003 0.000003 0.000002 -0.000000 0.000000 0.000000 -2.969575 3.164681 57.682300 -5.280027 1.179779 62.059140 -0.000004 0.000000 -0.000010 -0.000000 -0.000000 0.000000 -23.441909 -2.145584 20.255100 28.698119 -1.504474 -1.432913 1.069040 11.692105 -15.670435 -1.478766 -0.028569 0.065951 -0.000000 0.000001 -0.000000 -7.338638 -13.206437 -19.968891 25.573193 1.959327 1.592832 -15.126320 -0.911702 17.345805 -1.474048 -0.107140 0.258165 0.000000 -0.000003 -0.000000 
0.760098 87.559319 -0.802250 -2.660314 -34.021582 -3.782114 1.492533 1.627499 0.446810 2.975645 3.033238 0.833672 2.975645 3.033219 0.833671 19.217176 6.614230 0.636579 -1.269012 5.290556 -4.668201 -0.000000 0.000000 -0.000000 0.326564 -21.225030 -3.332001 -43.491417 -23.370438 -37.504388 18.934408 -69.881639 16.609113 -60.048701 11.757492 68.683672 10.800110 17.733941 7.401097 4.217092 10.033446 -9.196585 -0.000000 0.000003 0.000004 -0.000001 0.000002 -0.000001 22.232706 13.388182 -66.153579 0.240135 0.605813 -36.659722 -0.000008 -0.000001 -0.000000 0.000000 -0.000001 -0.000000 19.651197 6.023714 -80.801507 -0.507949 -2.099016 -26.626972 -0.000017 0.000000 -0.000000 0.000000 -0.000000 0.000000 16.990671 7.027772 -79.906178 -2.052610 -3.978700 -54.759481 0.000010 -0.000002 -0.000006 -0.000000 -0.000000 0.000000 13.048966 1.951036 -87.118851 -2.857601 -5.484208 -55.037866 0.000000 -0.000000 0.000001 0.000001 -0.000001 -0.000006 2.588139 27.064392 -7.733101 -78.946031 53.322225 76.662426 -11.802987 32.192621 6.344860 -36.942366 -4.753770 -16.715081 18.028925 17.780526 -0.901361 21.153147 -18.015812 -1.032918 -0.000006 0.000008 0.000004 0.000004 -0.000000 0.000001 -5.495666 -8.073254 -4.996492 0.539101 -2.362227 19.522810 -0.000001 0.000000 0.000002 -0.000000 -0.000000 0.000000 4.213858 -5.565982 57.300807 -3.056614 3.510041 81.909650 -0.000001 0.000006 0.000005 0.000001 0.000001 -0.000002 3.404128 -2.064172 54.601659 -5.125613 6.054508 78.920780 0.000003 0.000003 0.000000 -0.000000 -0.000000 0.000000 -3.019006 3.233408 57.681555 -5.290995 1.302390 62.568433 -0.000003 0.000000 -0.000009 0.000000 0.000000 -0.000000 -23.437550 -2.142406 20.238706 28.658664 -1.502472 -1.430807 1.094071 11.695909 -15.668095 -1.463012 -0.028550 0.065908 -0.000000 -0.000000 -0.000000 -7.336749 -13.202051 -19.963383 25.553046 1.956634 1.590943 -15.124014 -0.923092 17.322651 -1.470940 -0.107159 0.258173 0.000000 0.000002 0.000000 
0.766712 87.578514 -0.811919 -2.655168 -34.019454 -3.766572 1.506312 1.630879 0.446776 3.002984 3.040477 0.838484 3.002982 3.040480 0.838483 19.181936 6.388062 0.429573 -1.486602 4.511548 -4.620150 0.000000 0.000000 0.000000 0.337743 -21.184535 -3.265376 -43.555495 -23.359315 -37.479369 18.954521 -69.946594 16.634104 -60.061589 11.725595 68.641202 10.742335 17.500768 7.401216 4.320312 10.320661 -9.219410 0.000000 0.000005 0.000005 0.000001 -0.000000 -0.000002 22.210156 13.287733 -66.140806 0.240147 0.605789 -36.659135 -0.000010 -0.000000 -0.000000 -0.000001 -0.000000 -0.000000 19.675161 6.011831 -80.859652 -0.507472 -2.098069 -26.613964 -0.000017 0.000000 -0.000000 0.000000 -0.000000 -0.000000 17.120009 7.115319 -79.919504 -2.050722 -3.977381 -54.732297 0.000010 -0.000002 -0.000005 -0.000000 -0.000000 -0.000001 13.011106 2.036081 -86.762431 -2.855139 -5.482515 -55.012174 -0.000000 0.000000 0.000005 -0.000000 -0.000000 0.000002 2.599868 27.090432 -7.776989 -78.762613 53.264376 76.434618 -11.742246 32.565997 6.376674 -36.775279 -4.855834 -16.854878 17.790401 17.421524 -1.018660 21.200713 -18.268451 -0.912598 -0.000005 0.000010 0.000003 -0.000000 0.000002 -0.000002 -5.504696 -8.049474 -4.874473 0.538029 -2.349815 19.607923 -0.000001 -0.000000 0.000002 -0.000000 -0.000000 -0.000002 4.241696 -5.590252 57.266615 -3.056523 3.510057 81.908284 -0.000002 0.000005 0.000004 -0.000001 -0.000001 -0.000000 3.414268 -2.074997 54.571337 -5.129102 6.055183 78.953783 0.000003 0.000004 0.000001 0.000001 0.000000 -0.000003 -3.049830 3.287888 57.669391 -5.296912 1.404586 62.803555 -0.000003 -0.000001 -0.000009 0.000000 -0.000000 -0.000000 -23.424069 -2.134989 20.215572 28.605374 -1.500094 -1.428066 1.128662 11.704448 -15.662988 -1.446005 -0.028514 0.065874 -0.000000 0.000001 0.000000 -7.337684 -13.190789 -19.960914 25.529579 1.952898 1.588524 -15.108911 -0.928071 17.300260 -1.469798 -0.107118 0.258182 -0.000000 0.000001 -0.000000 
0.779992 87.599136 -0.828588 -2.653437 -34.018447 -3.747931 1.526616 1.636063 0.445670 3.043295 3.051480 0.843314 3.043295 3.051461 0.843314 19.088374 6.120222 0.149366 -1.723340 3.561574 -4.588924 0.000001 0.000001 -0.000000 0.351540 -21.156864 -3.180489 -43.619384 -23.351817 -37.411364 18.954130 -70.003094 16.639186 -60.116812 11.686683 68.603349 10.683367 17.260930 7.398124 4.433464 10.629254 -9.247813 0.000001 0.000003 0.000006 -0.000000 -0.000002 -0.000000 22.185622 13.193205 -66.115261 0.240238 0.605942 -36.669906 -0.000008 0.000000 -0.000000 0.000001 0.000000 -0.000001 19.699348 5.994985 -80.926014 -0.508170 -2.099452 -26.632940 -0.000017 -0.000000 0.000000 0.000000 -0.000001 0.000000 17.249694 7.219382 -79.908145 -2.048247 -3.975630 -54.696466 0.000011 -0.000002 -0.000005 0.000000 0.000000 -0.000000 13.011879 2.187271 -86.417855 -2.852696 -5.480833 -54.986598 0.000000 0.000000 0.000001 -0.000000 -0.000000 -0.000000 2.618559 27.127012 -7.849088 -78.629336 53.234235 76.206087 -11.669563 32.877249 6.389746 -36.664688 -4.966144 -16.973018 17.532831 17.067229 -1.088726 21.239614 -18.511990 -0.795342 -0.000009 0.000008 0.000002 0.000000 0.000002 -0.000002 -5.511599 -8.039623 -4.761904 0.541568 -2.340433 19.807325 -0.000000 0.000000 -0.000000 0.000000 0.000000 -0.000000 4.251950 -5.590255 57.305192 -3.057450 3.510182 81.923516 -0.000001 0.000006 0.000004 0.000000 -0.000000 0.000001 3.403128 -2.075603 54.498513 -5.129917 6.055331 78.961474 0.000003 0.000003 -0.000001 0.000000 -0.000000 0.000001 -3.081142 3.343609 57.651591 -5.306592 1.516916 63.152769 -0.000003 -0.000000 -0.000009 -0.000000 0.000000 -0.000002 -23.412483 -2.120106 20.185804 28.544648 -1.497356 -1.425008 1.171149 11.703448 -15.653206 -1.442823 -0.028502 0.065866 -0.000000 -0.000001 0.000000 -7.351214 -13.186036 -19.969194 25.512140 1.948675 1.586200 -15.092290 -0.919279 17.276197 -1.469048 -0.107132 0.258180 0.000000 -0.000002 -0.000000 
